<svg
      xmlns="http://www.w3.org/2000/svg"
      width="20"
      height="20"
      x="0"
      y="0"
      version="1.1"
      viewBox="0 0 431.4 475.83"
      xmlSpace="preserve"
    >
      <path d="M199.2 216.1c3.14-.08 5.91-.11 8.54-.11 8.69 0 17.26.6 26.33 1.24 3.11.22 6.25.44 9.43.64 3.78.24 6.55-.59 8.34-2.43 2.68-2.76 2.58-7.14 2.58-7.19V11.56c-.01-.8-.4-8.03-10.04-9.64C233.79.15 222.97 0 212.79 0h-5.05C152.38 0 101.2 12.96 63.63 36.5 23.72 61.5 1.72 96.41 0 137.45V333.7c-.04 1.65.15 7.67.15 7.67.06.93.13 1.85.22 2.76l.02.2v.13l.18 1.46c.51 4.16 1.35 8.1 2.48 11.72 19 60.79 87.68 88.34 103.67 91.9 7.88 1.76 14.29.5 18.67-3.62 5.3-4.99 5.12-11.82 4.93-13.8l-.02-.33v-206.9l2.81-.64c9.59-2.19 19.52-3.97 29.5-5.3 5.31-.65 10.62-1.18 15.81-1.57 7.48-.56 14.46-1 20.78-1.28zm-80.27 215.22c0 12.25-11.72 7.3-11.72 7.3-10.05-3.23-27.56-11.2-43.8-23.04-21.9-15.96-37.38-34.45-43.89-55.25-4.56-14.58-5-46.25 15.98-76.26 16.06-22.96 39.82-40.79 71.58-52.32 0 0 2.44-.79 5.94-1.92s5.91-1.75 5.91-1.75v203.24zm52.92-282.82c-2.11 2.42-5.06 4.96-8.74 7.54-8.27 5.77-18.18 10.4-29.45 13.74-7.55 2.24-14.67 3.38-21.15 3.38-5.7 0-11.07-.88-15.94-2.62-9.19-3.34-15.54-9.48-18.88-18.24-6.62 4.4-11.37 8.25-14.23 10.57l-.89.72c-2.57 2.07-4 3.63-4.95 4.66-1.12 1.22-1.74 1.89-2.87 1.89-.44 0-.81-.31-1.09-.92-.95-2.03-1.23-8.14.67-10.51.05-.3.21-.67 1.09-1.6 3-3.17 9.49-9.5 19.36-16.46l-.76-3.51c-.18-1.68-.3-3.18-.36-4.49-2.56 1.94-4.6 3.59-6.13 4.83l-.9.72c-2.57 2.07-4 3.63-4.95 4.66-1.12 1.22-1.74 1.89-2.87 1.89-.44 0-.81-.31-1.09-.92-.95-2.03-1.23-8.13.67-10.51.05-.3.21-.67 1.09-1.6 2.43-2.57 7.65-7.73 15.42-13.6l1.18-7.14c3.56-12.74 10.52-24.13 20.7-33.89 10.31-9.84 22.78-16.99 37.08-21.23 8.09-2.41 15.55-3.62 22.16-3.62 5.42 0 10.41.82 14.84 2.44 1.97.66 2.98 1.66 2.98 2.96 0 1.98-.69 3.97-2.06 5.92l-2.37 3.16c-2.39 3.09-4.58 4.9-6.7 5.53-2.08.61-4.06.75-5.89.39l-5.11-.92c-6.03-.95-11.78-.65-17.03.92-5.29 1.57-9.81 3.5-13.45 5.73-3.66 2.24-6.88 4.78-9.59 7.54-4.84 4.84-8.39 10.32-10.57 16.29 15.32-7.41 31.87-12.46 49.23-15 1.03-.15 1.78.07 2.33.63 1.06 1.09 1 3.2.94 5.42-.01.5-.03 1-.03 1.48 0 3.14 0 5.79-3.73 6.34-18.09 2.65-35.35 8.07-51.3 16.11l-.1.69c-.26 2.03-.39 4.16-.39 6.35 0 .95.02 1.89.07 2.87 15.03-7.14 31.23-12.01 48.15-14.49 1.03-.15 1.78.07 2.32.63 1.06 1.09 1 3.2.94 5.42-.01.5-.03 1-.03 1.49 0 3.14 0 5.79-3.73 6.34-15.67 2.3-30.77 6.68-44.9 13.04l.69 2.58c2.14 5.17 6.3 8.79 12.36 10.71 6.3 2.02 13.55 1.84 21.54-.53 8.03-2.39 14.56-5.55 19.4-9.39l3.83-3.12c2.56-2.23 4.55-3.53 6.08-3.98 2.86-.85 5-.62 6.38.65l1.36 1.19c1.75 1.55 2.63 3.15 2.63 4.77s-1.06 3.57-3.26 6.1z"></path>
      <path d="M431.24 134.45c-.06-.93-.13-1.85-.22-2.76l-.02-.2v-.13l-.18-1.46c-.51-4.16-1.35-8.1-2.48-11.72-19-60.79-87.68-88.34-103.67-91.9-7.88-1.76-14.29-.5-18.67 3.62-5.3 4.99-5.12 11.82-4.93 13.8l.02.33v206.91l-2.81.64c-9.59 2.19-19.52 3.97-29.5 5.3-5.31.65-10.62 1.18-15.81 1.57-7.46.56-14.44.99-20.76 1.28-3.14.08-5.91.11-8.54.11-8.69 0-17.26-.6-26.33-1.24-3.11-.22-6.25-.44-9.43-.64-3.78-.24-6.55.59-8.33 2.43-2.68 2.76-2.58 7.14-2.58 7.19v196.67c.01.8.4 8.03 10.04 9.64 10.58 1.77 21.4 1.92 31.58 1.92h5.05c55.36 0 106.53-12.96 144.1-36.49 39.91-25 61.91-59.91 63.63-100.95V142.12c.03-1.65-.16-7.67-.16-7.67zm-91.07 250.12c-6.19 5.53-14.15 10.02-23.68 13.36v14.56c0 1.23-.61 2.41-1.82 3.51-1.17 1.06-2.62 1.78-4.31 2.13l-10.16 2.11c-.58.12-1.15.18-1.68.18-.96 0-1.85-.2-2.62-.6-1.29-.66-1.94-1.65-1.94-2.94V402.9c-14.38 1.77-25.35 1.18-32.68-1.77-1.27-.48-1.92-1.2-1.92-2.14 0-.82.49-1.96 1.49-3.47l3.53-5.2c1.13-1.79 3-2.97 5.54-3.5 2.33-.48 5-.48 7.93 0 2.86.47 5.32.77 7.29.9 6.13.53 11.69.27 16.62-.76 4.97-1.03 8.85-2.08 11.54-3.11 2.69-1.02 5.02-2.21 6.94-3.51 3.92-2.75 5.91-5.94 5.91-9.48 0-4.29-5.49-6.87-16.33-7.67-3.34-.22-7.02-.38-10.94-.46-4.12-.1-8.51-.52-13.05-1.25-4.57-.73-8.7-1.89-12.29-3.43-8.15-3.49-12.28-8.74-12.28-15.6 0-6.12 3.45-12.1 10.24-17.77 6.05-5.04 13.98-9.21 23.56-12.39v-14.56c0-1.23.61-2.42 1.82-3.54 1.16-1.08 2.61-1.81 4.31-2.17l10.16-2.1c1.65-.34 3.09-.2 4.26.43 1.22.66 1.87 1.67 1.87 2.94v14.24c8.13-.82 15.77-.54 22.73.81 1.43.3 2.79.69 4.05 1.15 1.45.54 2.19 1.27 2.19 2.16 0 1.51-.92 3.51-2.81 6.14-2.99 4.18-5.46 6.43-7.54 6.86-.94.19-2.18.14-3.72-.15-8.34-2.19-17.41-2.27-27.07-.27-9.08 1.88-15.14 4.93-18 9.06a7.864 7.864 0 00-1.42 4.56c0 1.6.69 2.85 2.1 3.83 1.49 1.03 3.41 1.83 5.72 2.39 2.34.57 5.01.97 7.92 1.2l8.44.52c11.59.58 20.64 2.03 26.9 4.3 8.96 3.2 13.51 8.32 13.51 15.24.01 6.64-3.46 13.1-10.31 19.24zm55.73-192.81c-16.06 22.97-39.82 40.79-71.58 52.32 0 0-2.44.79-5.94 1.92s-5.91 1.75-5.91 1.75V44.5c0-12.25 11.72-7.3 11.72-7.3 10.05 3.23 27.56 11.2 43.8 23.04 21.9 15.96 37.38 34.45 43.88 55.25 4.57 14.59 5.01 46.26-15.97 76.27z"></path>
    </svg>